<svg width="29" height="30" viewBox="0 0 29 30" fill="none" xmlns="http://www.w3.org/2000/svg">
<path d="M1 15C1 8.87221 1 5.80695 2.97668 3.90347C4.95337 2 8.1351 2 14.5 2C20.8635 2 24.0466 2 26.0233 3.90347C28 5.80695 28 8.87084 28 15C28 21.1278 28 24.1931 26.0233 26.0965C24.0466 28 20.8649 28 14.5 28C8.13653 28 4.95337 28 2.97668 26.0965C1 24.1931 1 21.1292 1 15Z" stroke="black" stroke-width="1.875" stroke-linecap="round" stroke-linejoin="round"/>
<path d="M21.1555 8.35425H21.1434M19.9375 15.0001C19.9375 16.4422 19.3646 17.8252 18.3449 18.845C17.3252 19.8647 15.9421 20.4376 14.5 20.4376C13.0579 20.4376 11.6748 19.8647 10.6551 18.845C9.63538 17.8252 9.0625 16.4422 9.0625 15.0001C9.0625 13.558 9.63538 12.1749 10.6551 11.1552C11.6748 10.1355 13.0579 9.56258 14.5 9.56258C15.9421 9.56258 17.3252 10.1355 18.3449 11.1552C19.3646 12.1749 19.9375 13.558 19.9375 15.0001Z" stroke="black" stroke-width="1.875" stroke-linecap="round" stroke-linejoin="round"/>
</svg>
