<svg width="16" height="17" viewBox="0 0 16 17" fill="none" xmlns="http://www.w3.org/2000/svg">
<path d="M2.66669 6.5H4.00002V2.5H5.33335L7.61335 6.5H10.6667V2.5H12V6.5H13.3334V7.83333H12V9.16667H13.3334V10.5H12V14.5H10.6667L8.38002 10.5H5.33335V14.5H4.00002V10.5H2.66669V9.16667H4.00002V7.83333H2.66669V6.5ZM5.33335 6.5H6.08669L5.33335 5.18667V6.5ZM5.33335 7.83333V9.16667H7.61335L6.85335 7.83333H5.33335ZM10.6667 11.8333V10.5H9.90002L10.6667 11.8333ZM8.37335 7.83333L9.14002 9.16667H10.6667V7.83333H8.37335Z" fill="black"/>
</svg>
