<svg width="30" height="30" viewBox="0 0 30 30" fill="none" xmlns="http://www.w3.org/2000/svg">
<path d="M15 27.5C21.9038 27.5 27.5 21.9038 27.5 15C27.5 8.09625 21.9038 2.5 15 2.5C8.09625 2.5 2.5 8.09625 2.5 15C2.5 16.7238 2.85 18.3663 3.48 19.86C3.82875 20.685 4.0025 21.0975 4.025 21.41C4.04625 21.7225 3.95375 22.065 3.77 22.7513L2.5 27.5L7.24875 26.23C7.935 26.0463 8.2775 25.955 8.59 25.975C8.9025 25.9975 9.315 26.1713 10.14 26.52C11.6783 27.1679 13.3308 27.5011 15 27.5Z" stroke="black" stroke-width="1.5" stroke-linecap="round" stroke-linejoin="round"/>
<path d="M10.735 15.4712L11.8237 14.12C12.2825 13.55 12.8487 13.02 12.895 12.26C12.905 12.0687 12.77 11.2087 12.5012 9.4875C12.395 8.81125 11.7625 8.75 11.2162 8.75C10.5037 8.75 10.1475 8.75 9.79372 8.9125C9.34622 9.11625 8.88747 9.69 8.78622 10.1712C8.70622 10.5525 8.76622 10.815 8.88497 11.34C9.38747 13.5687 10.5687 15.77 12.3987 17.6012C14.23 19.4312 16.4312 20.6125 18.6612 21.115C19.1862 21.2337 19.4475 21.2937 19.8287 21.2137C20.31 21.1137 20.8837 20.6538 21.0887 20.2063C21.25 19.8525 21.25 19.4962 21.25 18.7837C21.25 18.2362 21.1887 17.605 20.5125 17.4987C18.7912 17.2287 17.9312 17.095 17.74 17.105C16.9812 17.15 16.45 17.7175 15.88 18.1762L14.5287 19.2637" stroke="black" stroke-width="1.5" stroke-linecap="round" stroke-linejoin="round"/>
</svg>
